<?xml version="1.0" encoding="utf-8" standalone="no"?>
<!DOCTYPE svg PUBLIC "-//W3C//DTD SVG 1.1//EN"
  "http://www.w3.org/Graphics/SVG/1.1/DTD/svg11.dtd">
<!-- Created with matplotlib (https://matplotlib.org/) -->
<svg height="345.6pt" version="1.1" viewBox="0 0 460.8 345.6" width="460.8pt" xmlns="http://www.w3.org/2000/svg" xmlns:xlink="http://www.w3.org/1999/xlink">
 <defs>
  <style type="text/css">
*{stroke-linecap:butt;stroke-linejoin:round;}
  </style>
 </defs>
 <g id="figure_1">
  <g id="patch_1">
   <path d="M 0 345.6 
L 460.8 345.6 
L 460.8 0 
L 0 0 
z
" style="fill:#ffffff;"/>
  </g>
  <g id="axes_1">
   <g id="patch_2">
    <path d="M 57.6 307.584 
L 414.72 307.584 
L 414.72 41.472 
L 57.6 41.472 
z
" style="fill:#ffffff;"/>
   </g>
   <g id="matplotlib.axis_1">
    <g id="xtick_1">
     <g id="line2d_1">
      <defs>
       <path d="M 0 0 
L 0 3.5 
" id="m8d22d13212" style="stroke:#000000;stroke-width:0.8;"/>
      </defs>
      <g>
       <use style="stroke:#000000;stroke-width:0.8;" x="57.6" xlink:href="#m8d22d13212" y="307.584"/>
      </g>
     </g>
     <g id="text_1">
      <!-- 0 -->
      <defs>
       <path d="M 31.78125 66.40625 
Q 24.171875 66.40625 20.328125 58.90625 
Q 16.5 51.421875 16.5 36.375 
Q 16.5 21.390625 20.328125 13.890625 
Q 24.171875 6.390625 31.78125 6.390625 
Q 39.453125 6.390625 43.28125 13.890625 
Q 47.125 21.390625 47.125 36.375 
Q 47.125 51.421875 43.28125 58.90625 
Q 39.453125 66.40625 31.78125 66.40625 
z
M 31.78125 74.21875 
Q 44.046875 74.21875 50.515625 64.515625 
Q 56.984375 54.828125 56.984375 36.375 
Q 56.984375 17.96875 50.515625 8.265625 
Q 44.046875 -1.421875 31.78125 -1.421875 
Q 19.53125 -1.421875 13.0625 8.265625 
Q 6.59375 17.96875 6.59375 36.375 
Q 6.59375 54.828125 13.0625 64.515625 
Q 19.53125 74.21875 31.78125 74.21875 
z
" id="DejaVuSans-48"/>
      </defs>
      <g transform="translate(54.41875 322.182437)scale(0.1 -0.1)">
       <use xlink:href="#DejaVuSans-48"/>
      </g>
     </g>
    </g>
    <g id="xtick_2">
     <g id="line2d_2">
      <g>
       <use style="stroke:#000000;stroke-width:0.8;" x="134.898701" xlink:href="#m8d22d13212" y="307.584"/>
      </g>
     </g>
     <g id="text_2">
      <!-- 50 -->
      <defs>
       <path d="M 10.796875 72.90625 
L 49.515625 72.90625 
L 49.515625 64.59375 
L 19.828125 64.59375 
L 19.828125 46.734375 
Q 21.96875 47.46875 24.109375 47.828125 
Q 26.265625 48.1875 28.421875 48.1875 
Q 40.625 48.1875 47.75 41.5 
Q 54.890625 34.8125 54.890625 23.390625 
Q 54.890625 11.625 47.5625 5.09375 
Q 40.234375 -1.421875 26.90625 -1.421875 
Q 22.3125 -1.421875 17.546875 -0.640625 
Q 12.796875 0.140625 7.71875 1.703125 
L 7.71875 11.625 
Q 12.109375 9.234375 16.796875 8.0625 
Q 21.484375 6.890625 26.703125 6.890625 
Q 35.15625 6.890625 40.078125 11.328125 
Q 45.015625 15.765625 45.015625 23.390625 
Q 45.015625 31 40.078125 35.4375 
Q 35.15625 39.890625 26.703125 39.890625 
Q 22.75 39.890625 18.8125 39.015625 
Q 14.890625 38.140625 10.796875 36.28125 
z
" id="DejaVuSans-53"/>
      </defs>
      <g transform="translate(128.536201 322.182437)scale(0.1 -0.1)">
       <use xlink:href="#DejaVuSans-53"/>
       <use x="63.623047" xlink:href="#DejaVuSans-48"/>
      </g>
     </g>
    </g>
    <g id="xtick_3">
     <g id="line2d_3">
      <g>
       <use style="stroke:#000000;stroke-width:0.8;" x="212.197403" xlink:href="#m8d22d13212" y="307.584"/>
      </g>
     </g>
     <g id="text_3">
      <!-- 100 -->
      <defs>
       <path d="M 12.40625 8.296875 
L 28.515625 8.296875 
L 28.515625 63.921875 
L 10.984375 60.40625 
L 10.984375 69.390625 
L 28.421875 72.90625 
L 38.28125 72.90625 
L 38.28125 8.296875 
L 54.390625 8.296875 
L 54.390625 0 
L 12.40625 0 
z
" id="DejaVuSans-49"/>
      </defs>
      <g transform="translate(202.653653 322.182437)scale(0.1 -0.1)">
       <use xlink:href="#DejaVuSans-49"/>
       <use x="63.623047" xlink:href="#DejaVuSans-48"/>
       <use x="127.246094" xlink:href="#DejaVuSans-48"/>
      </g>
     </g>
    </g>
    <g id="xtick_4">
     <g id="line2d_4">
      <g>
       <use style="stroke:#000000;stroke-width:0.8;" x="289.496104" xlink:href="#m8d22d13212" y="307.584"/>
      </g>
     </g>
     <g id="text_4">
      <!-- 150 -->
      <g transform="translate(279.952354 322.182437)scale(0.1 -0.1)">
       <use xlink:href="#DejaVuSans-49"/>
       <use x="63.623047" xlink:href="#DejaVuSans-53"/>
       <use x="127.246094" xlink:href="#DejaVuSans-48"/>
      </g>
     </g>
    </g>
    <g id="xtick_5">
     <g id="line2d_5">
      <g>
       <use style="stroke:#000000;stroke-width:0.8;" x="366.794805" xlink:href="#m8d22d13212" y="307.584"/>
      </g>
     </g>
     <g id="text_5">
      <!-- 200 -->
      <defs>
       <path d="M 19.1875 8.296875 
L 53.609375 8.296875 
L 53.609375 0 
L 7.328125 0 
L 7.328125 8.296875 
Q 12.9375 14.109375 22.625 23.890625 
Q 32.328125 33.6875 34.8125 36.53125 
Q 39.546875 41.84375 41.421875 45.53125 
Q 43.3125 49.21875 43.3125 52.78125 
Q 43.3125 58.59375 39.234375 62.25 
Q 35.15625 65.921875 28.609375 65.921875 
Q 23.96875 65.921875 18.8125 64.3125 
Q 13.671875 62.703125 7.8125 59.421875 
L 7.8125 69.390625 
Q 13.765625 71.78125 18.9375 73 
Q 24.125 74.21875 28.421875 74.21875 
Q 39.75 74.21875 46.484375 68.546875 
Q 53.21875 62.890625 53.21875 53.421875 
Q 53.21875 48.921875 51.53125 44.890625 
Q 49.859375 40.875 45.40625 35.40625 
Q 44.1875 33.984375 37.640625 27.21875 
Q 31.109375 20.453125 19.1875 8.296875 
z
" id="DejaVuSans-50"/>
      </defs>
      <g transform="translate(357.251055 322.182437)scale(0.1 -0.1)">
       <use xlink:href="#DejaVuSans-50"/>
       <use x="63.623047" xlink:href="#DejaVuSans-48"/>
       <use x="127.246094" xlink:href="#DejaVuSans-48"/>
      </g>
     </g>
    </g>
    <g id="xtick_6">
     <g id="line2d_6">
      <defs>
       <path d="M 0 0 
L 0 2 
" id="m3d7ca5bd75" style="stroke:#000000;stroke-width:0.6;"/>
      </defs>
      <g>
       <use style="stroke:#000000;stroke-width:0.6;" x="73.05974" xlink:href="#m3d7ca5bd75" y="307.584"/>
      </g>
     </g>
    </g>
    <g id="xtick_7">
     <g id="line2d_7">
      <g>
       <use style="stroke:#000000;stroke-width:0.6;" x="88.519481" xlink:href="#m3d7ca5bd75" y="307.584"/>
      </g>
     </g>
    </g>
    <g id="xtick_8">
     <g id="line2d_8">
      <g>
       <use style="stroke:#000000;stroke-width:0.6;" x="103.979221" xlink:href="#m3d7ca5bd75" y="307.584"/>
      </g>
     </g>
    </g>
    <g id="xtick_9">
     <g id="line2d_9">
      <g>
       <use style="stroke:#000000;stroke-width:0.6;" x="119.438961" xlink:href="#m3d7ca5bd75" y="307.584"/>
      </g>
     </g>
    </g>
    <g id="xtick_10">
     <g id="line2d_10">
      <g>
       <use style="stroke:#000000;stroke-width:0.6;" x="150.358442" xlink:href="#m3d7ca5bd75" y="307.584"/>
      </g>
     </g>
    </g>
    <g id="xtick_11">
     <g id="line2d_11">
      <g>
       <use style="stroke:#000000;stroke-width:0.6;" x="165.818182" xlink:href="#m3d7ca5bd75" y="307.584"/>
      </g>
     </g>
    </g>
    <g id="xtick_12">
     <g id="line2d_12">
      <g>
       <use style="stroke:#000000;stroke-width:0.6;" x="181.277922" xlink:href="#m3d7ca5bd75" y="307.584"/>
      </g>
     </g>
    </g>
    <g id="xtick_13">
     <g id="line2d_13">
      <g>
       <use style="stroke:#000000;stroke-width:0.6;" x="196.737662" xlink:href="#m3d7ca5bd75" y="307.584"/>
      </g>
     </g>
    </g>
    <g id="xtick_14">
     <g id="line2d_14">
      <g>
       <use style="stroke:#000000;stroke-width:0.6;" x="227.657143" xlink:href="#m3d7ca5bd75" y="307.584"/>
      </g>
     </g>
    </g>
    <g id="xtick_15">
     <g id="line2d_15">
      <g>
       <use style="stroke:#000000;stroke-width:0.6;" x="243.116883" xlink:href="#m3d7ca5bd75" y="307.584"/>
      </g>
     </g>
    </g>
    <g id="xtick_16">
     <g id="line2d_16">
      <g>
       <use style="stroke:#000000;stroke-width:0.6;" x="258.576623" xlink:href="#m3d7ca5bd75" y="307.584"/>
      </g>
     </g>
    </g>
    <g id="xtick_17">
     <g id="line2d_17">
      <g>
       <use style="stroke:#000000;stroke-width:0.6;" x="274.036364" xlink:href="#m3d7ca5bd75" y="307.584"/>
      </g>
     </g>
    </g>
    <g id="xtick_18">
     <g id="line2d_18">
      <g>
       <use style="stroke:#000000;stroke-width:0.6;" x="304.955844" xlink:href="#m3d7ca5bd75" y="307.584"/>
      </g>
     </g>
    </g>
    <g id="xtick_19">
     <g id="line2d_19">
      <g>
       <use style="stroke:#000000;stroke-width:0.6;" x="320.415584" xlink:href="#m3d7ca5bd75" y="307.584"/>
      </g>
     </g>
    </g>
    <g id="xtick_20">
     <g id="line2d_20">
      <g>
       <use style="stroke:#000000;stroke-width:0.6;" x="335.875325" xlink:href="#m3d7ca5bd75" y="307.584"/>
      </g>
     </g>
    </g>
    <g id="xtick_21">
     <g id="line2d_21">
      <g>
       <use style="stroke:#000000;stroke-width:0.6;" x="351.335065" xlink:href="#m3d7ca5bd75" y="307.584"/>
      </g>
     </g>
    </g>
    <g id="xtick_22">
     <g id="line2d_22">
      <g>
       <use style="stroke:#000000;stroke-width:0.6;" x="382.254545" xlink:href="#m3d7ca5bd75" y="307.584"/>
      </g>
     </g>
    </g>
    <g id="xtick_23">
     <g id="line2d_23">
      <g>
       <use style="stroke:#000000;stroke-width:0.6;" x="397.714286" xlink:href="#m3d7ca5bd75" y="307.584"/>
      </g>
     </g>
    </g>
    <g id="xtick_24">
     <g id="line2d_24">
      <g>
       <use style="stroke:#000000;stroke-width:0.6;" x="413.174026" xlink:href="#m3d7ca5bd75" y="307.584"/>
      </g>
     </g>
    </g>
    <g id="text_6">
     <!-- Residue -->
     <defs>
      <path d="M 44.390625 34.1875 
Q 47.5625 33.109375 50.5625 29.59375 
Q 53.5625 26.078125 56.59375 19.921875 
L 66.609375 0 
L 56 0 
L 46.6875 18.703125 
Q 43.0625 26.03125 39.671875 28.421875 
Q 36.28125 30.8125 30.421875 30.8125 
L 19.671875 30.8125 
L 19.671875 0 
L 9.8125 0 
L 9.8125 72.90625 
L 32.078125 72.90625 
Q 44.578125 72.90625 50.734375 67.671875 
Q 56.890625 62.453125 56.890625 51.90625 
Q 56.890625 45.015625 53.6875 40.46875 
Q 50.484375 35.9375 44.390625 34.1875 
z
M 19.671875 64.796875 
L 19.671875 38.921875 
L 32.078125 38.921875 
Q 39.203125 38.921875 42.84375 42.21875 
Q 46.484375 45.515625 46.484375 51.90625 
Q 46.484375 58.296875 42.84375 61.546875 
Q 39.203125 64.796875 32.078125 64.796875 
z
" id="DejaVuSans-82"/>
      <path d="M 56.203125 29.59375 
L 56.203125 25.203125 
L 14.890625 25.203125 
Q 15.484375 15.921875 20.484375 11.0625 
Q 25.484375 6.203125 34.421875 6.203125 
Q 39.59375 6.203125 44.453125 7.46875 
Q 49.3125 8.734375 54.109375 11.28125 
L 54.109375 2.78125 
Q 49.265625 0.734375 44.1875 -0.34375 
Q 39.109375 -1.421875 33.890625 -1.421875 
Q 20.796875 -1.421875 13.15625 6.1875 
Q 5.515625 13.8125 5.515625 26.8125 
Q 5.515625 40.234375 12.765625 48.109375 
Q 20.015625 56 32.328125 56 
Q 43.359375 56 49.78125 48.890625 
Q 56.203125 41.796875 56.203125 29.59375 
z
M 47.21875 32.234375 
Q 47.125 39.59375 43.09375 43.984375 
Q 39.0625 48.390625 32.421875 48.390625 
Q 24.90625 48.390625 20.390625 44.140625 
Q 15.875 39.890625 15.1875 32.171875 
z
" id="DejaVuSans-101"/>
      <path d="M 44.28125 53.078125 
L 44.28125 44.578125 
Q 40.484375 46.53125 36.375 47.5 
Q 32.28125 48.484375 27.875 48.484375 
Q 21.1875 48.484375 17.84375 46.4375 
Q 14.5 44.390625 14.5 40.28125 
Q 14.5 37.15625 16.890625 35.375 
Q 19.28125 33.59375 26.515625 31.984375 
L 29.59375 31.296875 
Q 39.15625 29.25 43.1875 25.515625 
Q 47.21875 21.78125 47.21875 15.09375 
Q 47.21875 7.46875 41.1875 3.015625 
Q 35.15625 -1.421875 24.609375 -1.421875 
Q 20.21875 -1.421875 15.453125 -0.5625 
Q 10.6875 0.296875 5.421875 2 
L 5.421875 11.28125 
Q 10.40625 8.6875 15.234375 7.390625 
Q 20.0625 6.109375 24.8125 6.109375 
Q 31.15625 6.109375 34.5625 8.28125 
Q 37.984375 10.453125 37.984375 14.40625 
Q 37.984375 18.0625 35.515625 20.015625 
Q 33.0625 21.96875 24.703125 23.78125 
L 21.578125 24.515625 
Q 13.234375 26.265625 9.515625 29.90625 
Q 5.8125 33.546875 5.8125 39.890625 
Q 5.8125 47.609375 11.28125 51.796875 
Q 16.75 56 26.8125 56 
Q 31.78125 56 36.171875 55.265625 
Q 40.578125 54.546875 44.28125 53.078125 
z
" id="DejaVuSans-115"/>
      <path d="M 9.421875 54.6875 
L 18.40625 54.6875 
L 18.40625 0 
L 9.421875 0 
z
M 9.421875 75.984375 
L 18.40625 75.984375 
L 18.40625 64.59375 
L 9.421875 64.59375 
z
" id="DejaVuSans-105"/>
      <path d="M 45.40625 46.390625 
L 45.40625 75.984375 
L 54.390625 75.984375 
L 54.390625 0 
L 45.40625 0 
L 45.40625 8.203125 
Q 42.578125 3.328125 38.25 0.953125 
Q 33.9375 -1.421875 27.875 -1.421875 
Q 17.96875 -1.421875 11.734375 6.484375 
Q 5.515625 14.40625 5.515625 27.296875 
Q 5.515625 40.1875 11.734375 48.09375 
Q 17.96875 56 27.875 56 
Q 33.9375 56 38.25 53.625 
Q 42.578125 51.265625 45.40625 46.390625 
z
M 14.796875 27.296875 
Q 14.796875 17.390625 18.875 11.75 
Q 22.953125 6.109375 30.078125 6.109375 
Q 37.203125 6.109375 41.296875 11.75 
Q 45.40625 17.390625 45.40625 27.296875 
Q 45.40625 37.203125 41.296875 42.84375 
Q 37.203125 48.484375 30.078125 48.484375 
Q 22.953125 48.484375 18.875 42.84375 
Q 14.796875 37.203125 14.796875 27.296875 
z
" id="DejaVuSans-100"/>
      <path d="M 8.5 21.578125 
L 8.5 54.6875 
L 17.484375 54.6875 
L 17.484375 21.921875 
Q 17.484375 14.15625 20.5 10.265625 
Q 23.53125 6.390625 29.59375 6.390625 
Q 36.859375 6.390625 41.078125 11.03125 
Q 45.3125 15.671875 45.3125 23.6875 
L 45.3125 54.6875 
L 54.296875 54.6875 
L 54.296875 0 
L 45.3125 0 
L 45.3125 8.40625 
Q 42.046875 3.421875 37.71875 1 
Q 33.40625 -1.421875 27.6875 -1.421875 
Q 18.265625 -1.421875 13.375 4.4375 
Q 8.5 10.296875 8.5 21.578125 
z
M 31.109375 56 
z
" id="DejaVuSans-117"/>
     </defs>
     <g transform="translate(216.420937 335.860562)scale(0.1 -0.1)">
      <use xlink:href="#DejaVuSans-82"/>
      <use x="64.982422" xlink:href="#DejaVuSans-101"/>
      <use x="126.505859" xlink:href="#DejaVuSans-115"/>
      <use x="178.605469" xlink:href="#DejaVuSans-105"/>
      <use x="206.388672" xlink:href="#DejaVuSans-100"/>
      <use x="269.865234" xlink:href="#DejaVuSans-117"/>
      <use x="333.244141" xlink:href="#DejaVuSans-101"/>
     </g>
    </g>
   </g>
   <g id="matplotlib.axis_2">
    <g id="ytick_1">
     <g id="line2d_25">
      <defs>
       <path d="M 0 0 
L -3.5 0 
" id="m660c2b1736" style="stroke:#000000;stroke-width:0.8;"/>
      </defs>
      <g>
       <use style="stroke:#000000;stroke-width:0.8;" x="57.6" xlink:href="#m660c2b1736" y="295.491613"/>
      </g>
     </g>
     <g id="text_7">
      <!-- 0 -->
      <g transform="translate(44.2375 299.290832)scale(0.1 -0.1)">
       <use xlink:href="#DejaVuSans-48"/>
      </g>
     </g>
    </g>
    <g id="ytick_2">
     <g id="line2d_26">
      <g>
       <use style="stroke:#000000;stroke-width:0.8;" x="57.6" xlink:href="#m660c2b1736" y="257.392649"/>
      </g>
     </g>
     <g id="text_8">
      <!-- 1 -->
      <g transform="translate(44.2375 261.191868)scale(0.1 -0.1)">
       <use xlink:href="#DejaVuSans-49"/>
      </g>
     </g>
    </g>
    <g id="ytick_3">
     <g id="line2d_27">
      <g>
       <use style="stroke:#000000;stroke-width:0.8;" x="57.6" xlink:href="#m660c2b1736" y="219.293685"/>
      </g>
     </g>
     <g id="text_9">
      <!-- 2 -->
      <g transform="translate(44.2375 223.092904)scale(0.1 -0.1)">
       <use xlink:href="#DejaVuSans-50"/>
      </g>
     </g>
    </g>
    <g id="ytick_4">
     <g id="line2d_28">
      <g>
       <use style="stroke:#000000;stroke-width:0.8;" x="57.6" xlink:href="#m660c2b1736" y="181.194722"/>
      </g>
     </g>
     <g id="text_10">
      <!-- 3 -->
      <defs>
       <path d="M 40.578125 39.3125 
Q 47.65625 37.796875 51.625 33 
Q 55.609375 28.21875 55.609375 21.1875 
Q 55.609375 10.40625 48.1875 4.484375 
Q 40.765625 -1.421875 27.09375 -1.421875 
Q 22.515625 -1.421875 17.65625 -0.515625 
Q 12.796875 0.390625 7.625 2.203125 
L 7.625 11.71875 
Q 11.71875 9.328125 16.59375 8.109375 
Q 21.484375 6.890625 26.8125 6.890625 
Q 36.078125 6.890625 40.9375 10.546875 
Q 45.796875 14.203125 45.796875 21.1875 
Q 45.796875 27.640625 41.28125 31.265625 
Q 36.765625 34.90625 28.71875 34.90625 
L 20.21875 34.90625 
L 20.21875 43.015625 
L 29.109375 43.015625 
Q 36.375 43.015625 40.234375 45.921875 
Q 44.09375 48.828125 44.09375 54.296875 
Q 44.09375 59.90625 40.109375 62.90625 
Q 36.140625 65.921875 28.71875 65.921875 
Q 24.65625 65.921875 20.015625 65.03125 
Q 15.375 64.15625 9.8125 62.3125 
L 9.8125 71.09375 
Q 15.4375 72.65625 20.34375 73.4375 
Q 25.25 74.21875 29.59375 74.21875 
Q 40.828125 74.21875 47.359375 69.109375 
Q 53.90625 64.015625 53.90625 55.328125 
Q 53.90625 49.265625 50.4375 45.09375 
Q 46.96875 40.921875 40.578125 39.3125 
z
" id="DejaVuSans-51"/>
      </defs>
      <g transform="translate(44.2375 184.99394)scale(0.1 -0.1)">
       <use xlink:href="#DejaVuSans-51"/>
      </g>
     </g>
    </g>
    <g id="ytick_5">
     <g id="line2d_29">
      <g>
       <use style="stroke:#000000;stroke-width:0.8;" x="57.6" xlink:href="#m660c2b1736" y="143.095758"/>
      </g>
     </g>
     <g id="text_11">
      <!-- 4 -->
      <defs>
       <path d="M 37.796875 64.3125 
L 12.890625 25.390625 
L 37.796875 25.390625 
z
M 35.203125 72.90625 
L 47.609375 72.90625 
L 47.609375 25.390625 
L 58.015625 25.390625 
L 58.015625 17.1875 
L 47.609375 17.1875 
L 47.609375 0 
L 37.796875 0 
L 37.796875 17.1875 
L 4.890625 17.1875 
L 4.890625 26.703125 
z
" id="DejaVuSans-52"/>
      </defs>
      <g transform="translate(44.2375 146.894977)scale(0.1 -0.1)">
       <use xlink:href="#DejaVuSans-52"/>
      </g>
     </g>
    </g>
    <g id="ytick_6">
     <g id="line2d_30">
      <g>
       <use style="stroke:#000000;stroke-width:0.8;" x="57.6" xlink:href="#m660c2b1736" y="104.996794"/>
      </g>
     </g>
     <g id="text_12">
      <!-- 5 -->
      <g transform="translate(44.2375 108.796013)scale(0.1 -0.1)">
       <use xlink:href="#DejaVuSans-53"/>
      </g>
     </g>
    </g>
    <g id="ytick_7">
     <g id="line2d_31">
      <g>
       <use style="stroke:#000000;stroke-width:0.8;" x="57.6" xlink:href="#m660c2b1736" y="66.89783"/>
      </g>
     </g>
     <g id="text_13">
      <!-- 6 -->
      <defs>
       <path d="M 33.015625 40.375 
Q 26.375 40.375 22.484375 35.828125 
Q 18.609375 31.296875 18.609375 23.390625 
Q 18.609375 15.53125 22.484375 10.953125 
Q 26.375 6.390625 33.015625 6.390625 
Q 39.65625 6.390625 43.53125 10.953125 
Q 47.40625 15.53125 47.40625 23.390625 
Q 47.40625 31.296875 43.53125 35.828125 
Q 39.65625 40.375 33.015625 40.375 
z
M 52.59375 71.296875 
L 52.59375 62.3125 
Q 48.875 64.0625 45.09375 64.984375 
Q 41.3125 65.921875 37.59375 65.921875 
Q 27.828125 65.921875 22.671875 59.328125 
Q 17.53125 52.734375 16.796875 39.40625 
Q 19.671875 43.65625 24.015625 45.921875 
Q 28.375 48.1875 33.59375 48.1875 
Q 44.578125 48.1875 50.953125 41.515625 
Q 57.328125 34.859375 57.328125 23.390625 
Q 57.328125 12.15625 50.6875 5.359375 
Q 44.046875 -1.421875 33.015625 -1.421875 
Q 20.359375 -1.421875 13.671875 8.265625 
Q 6.984375 17.96875 6.984375 36.375 
Q 6.984375 53.65625 15.1875 63.9375 
Q 23.390625 74.21875 37.203125 74.21875 
Q 40.921875 74.21875 44.703125 73.484375 
Q 48.484375 72.75 52.59375 71.296875 
z
" id="DejaVuSans-54"/>
      </defs>
      <g transform="translate(44.2375 70.697049)scale(0.1 -0.1)">
       <use xlink:href="#DejaVuSans-54"/>
      </g>
     </g>
    </g>
    <g id="text_14">
     <!-- Square fluctuations -->
     <defs>
      <path d="M 53.515625 70.515625 
L 53.515625 60.890625 
Q 47.90625 63.578125 42.921875 64.890625 
Q 37.9375 66.21875 33.296875 66.21875 
Q 25.25 66.21875 20.875 63.09375 
Q 16.5 59.96875 16.5 54.203125 
Q 16.5 49.359375 19.40625 46.890625 
Q 22.3125 44.4375 30.421875 42.921875 
L 36.375 41.703125 
Q 47.40625 39.59375 52.65625 34.296875 
Q 57.90625 29 57.90625 20.125 
Q 57.90625 9.515625 50.796875 4.046875 
Q 43.703125 -1.421875 29.984375 -1.421875 
Q 24.8125 -1.421875 18.96875 -0.25 
Q 13.140625 0.921875 6.890625 3.21875 
L 6.890625 13.375 
Q 12.890625 10.015625 18.65625 8.296875 
Q 24.421875 6.59375 29.984375 6.59375 
Q 38.421875 6.59375 43.015625 9.90625 
Q 47.609375 13.234375 47.609375 19.390625 
Q 47.609375 24.75 44.3125 27.78125 
Q 41.015625 30.8125 33.5 32.328125 
L 27.484375 33.5 
Q 16.453125 35.6875 11.515625 40.375 
Q 6.59375 45.0625 6.59375 53.421875 
Q 6.59375 63.09375 13.40625 68.65625 
Q 20.21875 74.21875 32.171875 74.21875 
Q 37.3125 74.21875 42.625 73.28125 
Q 47.953125 72.359375 53.515625 70.515625 
z
" id="DejaVuSans-83"/>
      <path d="M 14.796875 27.296875 
Q 14.796875 17.390625 18.875 11.75 
Q 22.953125 6.109375 30.078125 6.109375 
Q 37.203125 6.109375 41.296875 11.75 
Q 45.40625 17.390625 45.40625 27.296875 
Q 45.40625 37.203125 41.296875 42.84375 
Q 37.203125 48.484375 30.078125 48.484375 
Q 22.953125 48.484375 18.875 42.84375 
Q 14.796875 37.203125 14.796875 27.296875 
z
M 45.40625 8.203125 
Q 42.578125 3.328125 38.25 0.953125 
Q 33.9375 -1.421875 27.875 -1.421875 
Q 17.96875 -1.421875 11.734375 6.484375 
Q 5.515625 14.40625 5.515625 27.296875 
Q 5.515625 40.1875 11.734375 48.09375 
Q 17.96875 56 27.875 56 
Q 33.9375 56 38.25 53.625 
Q 42.578125 51.265625 45.40625 46.390625 
L 45.40625 54.6875 
L 54.390625 54.6875 
L 54.390625 -20.796875 
L 45.40625 -20.796875 
z
" id="DejaVuSans-113"/>
      <path d="M 34.28125 27.484375 
Q 23.390625 27.484375 19.1875 25 
Q 14.984375 22.515625 14.984375 16.5 
Q 14.984375 11.71875 18.140625 8.90625 
Q 21.296875 6.109375 26.703125 6.109375 
Q 34.1875 6.109375 38.703125 11.40625 
Q 43.21875 16.703125 43.21875 25.484375 
L 43.21875 27.484375 
z
M 52.203125 31.203125 
L 52.203125 0 
L 43.21875 0 
L 43.21875 8.296875 
Q 40.140625 3.328125 35.546875 0.953125 
Q 30.953125 -1.421875 24.3125 -1.421875 
Q 15.921875 -1.421875 10.953125 3.296875 
Q 6 8.015625 6 15.921875 
Q 6 25.140625 12.171875 29.828125 
Q 18.359375 34.515625 30.609375 34.515625 
L 43.21875 34.515625 
L 43.21875 35.40625 
Q 43.21875 41.609375 39.140625 45 
Q 35.0625 48.390625 27.6875 48.390625 
Q 23 48.390625 18.546875 47.265625 
Q 14.109375 46.140625 10.015625 43.890625 
L 10.015625 52.203125 
Q 14.9375 54.109375 19.578125 55.046875 
Q 24.21875 56 28.609375 56 
Q 40.484375 56 46.34375 49.84375 
Q 52.203125 43.703125 52.203125 31.203125 
z
" id="DejaVuSans-97"/>
      <path d="M 41.109375 46.296875 
Q 39.59375 47.171875 37.8125 47.578125 
Q 36.03125 48 33.890625 48 
Q 26.265625 48 22.1875 43.046875 
Q 18.109375 38.09375 18.109375 28.8125 
L 18.109375 0 
L 9.078125 0 
L 9.078125 54.6875 
L 18.109375 54.6875 
L 18.109375 46.1875 
Q 20.953125 51.171875 25.484375 53.578125 
Q 30.03125 56 36.53125 56 
Q 37.453125 56 38.578125 55.875 
Q 39.703125 55.765625 41.0625 55.515625 
z
" id="DejaVuSans-114"/>
      <path id="DejaVuSans-32"/>
      <path d="M 37.109375 75.984375 
L 37.109375 68.5 
L 28.515625 68.5 
Q 23.6875 68.5 21.796875 66.546875 
Q 19.921875 64.59375 19.921875 59.515625 
L 19.921875 54.6875 
L 34.71875 54.6875 
L 34.71875 47.703125 
L 19.921875 47.703125 
L 19.921875 0 
L 10.890625 0 
L 10.890625 47.703125 
L 2.296875 47.703125 
L 2.296875 54.6875 
L 10.890625 54.6875 
L 10.890625 58.5 
Q 10.890625 67.625 15.140625 71.796875 
Q 19.390625 75.984375 28.609375 75.984375 
z
" id="DejaVuSans-102"/>
      <path d="M 9.421875 75.984375 
L 18.40625 75.984375 
L 18.40625 0 
L 9.421875 0 
z
" id="DejaVuSans-108"/>
      <path d="M 48.78125 52.59375 
L 48.78125 44.1875 
Q 44.96875 46.296875 41.140625 47.34375 
Q 37.3125 48.390625 33.40625 48.390625 
Q 24.65625 48.390625 19.8125 42.84375 
Q 14.984375 37.3125 14.984375 27.296875 
Q 14.984375 17.28125 19.8125 11.734375 
Q 24.65625 6.203125 33.40625 6.203125 
Q 37.3125 6.203125 41.140625 7.25 
Q 44.96875 8.296875 48.78125 10.40625 
L 48.78125 2.09375 
Q 45.015625 0.34375 40.984375 -0.53125 
Q 36.96875 -1.421875 32.421875 -1.421875 
Q 20.0625 -1.421875 12.78125 6.34375 
Q 5.515625 14.109375 5.515625 27.296875 
Q 5.515625 40.671875 12.859375 48.328125 
Q 20.21875 56 33.015625 56 
Q 37.15625 56 41.109375 55.140625 
Q 45.0625 54.296875 48.78125 52.59375 
z
" id="DejaVuSans-99"/>
      <path d="M 18.3125 70.21875 
L 18.3125 54.6875 
L 36.8125 54.6875 
L 36.8125 47.703125 
L 18.3125 47.703125 
L 18.3125 18.015625 
Q 18.3125 11.328125 20.140625 9.421875 
Q 21.96875 7.515625 27.59375 7.515625 
L 36.8125 7.515625 
L 36.8125 0 
L 27.59375 0 
Q 17.1875 0 13.234375 3.875 
Q 9.28125 7.765625 9.28125 18.015625 
L 9.28125 47.703125 
L 2.6875 47.703125 
L 2.6875 54.6875 
L 9.28125 54.6875 
L 9.28125 70.21875 
z
" id="DejaVuSans-116"/>
      <path d="M 30.609375 48.390625 
Q 23.390625 48.390625 19.1875 42.75 
Q 14.984375 37.109375 14.984375 27.296875 
Q 14.984375 17.484375 19.15625 11.84375 
Q 23.34375 6.203125 30.609375 6.203125 
Q 37.796875 6.203125 41.984375 11.859375 
Q 46.1875 17.53125 46.1875 27.296875 
Q 46.1875 37.015625 41.984375 42.703125 
Q 37.796875 48.390625 30.609375 48.390625 
z
M 30.609375 56 
Q 42.328125 56 49.015625 48.375 
Q 55.71875 40.765625 55.71875 27.296875 
Q 55.71875 13.875 49.015625 6.21875 
Q 42.328125 -1.421875 30.609375 -1.421875 
Q 18.84375 -1.421875 12.171875 6.21875 
Q 5.515625 13.875 5.515625 27.296875 
Q 5.515625 40.765625 12.171875 48.375 
Q 18.84375 56 30.609375 56 
z
" id="DejaVuSans-111"/>
      <path d="M 54.890625 33.015625 
L 54.890625 0 
L 45.90625 0 
L 45.90625 32.71875 
Q 45.90625 40.484375 42.875 44.328125 
Q 39.84375 48.1875 33.796875 48.1875 
Q 26.515625 48.1875 22.3125 43.546875 
Q 18.109375 38.921875 18.109375 30.90625 
L 18.109375 0 
L 9.078125 0 
L 9.078125 54.6875 
L 18.109375 54.6875 
L 18.109375 46.1875 
Q 21.34375 51.125 25.703125 53.5625 
Q 30.078125 56 35.796875 56 
Q 45.21875 56 50.046875 50.171875 
Q 54.890625 44.34375 54.890625 33.015625 
z
" id="DejaVuSans-110"/>
     </defs>
     <g transform="translate(38.157812 223.160031)rotate(-90)scale(0.1 -0.1)">
      <use xlink:href="#DejaVuSans-83"/>
      <use x="63.476562" xlink:href="#DejaVuSans-113"/>
      <use x="126.953125" xlink:href="#DejaVuSans-117"/>
      <use x="190.332031" xlink:href="#DejaVuSans-97"/>
      <use x="251.611328" xlink:href="#DejaVuSans-114"/>
      <use x="290.474609" xlink:href="#DejaVuSans-101"/>
      <use x="351.998047" xlink:href="#DejaVuSans-32"/>
      <use x="383.785156" xlink:href="#DejaVuSans-102"/>
      <use x="418.990234" xlink:href="#DejaVuSans-108"/>
      <use x="446.773438" xlink:href="#DejaVuSans-117"/>
      <use x="510.152344" xlink:href="#DejaVuSans-99"/>
      <use x="565.132812" xlink:href="#DejaVuSans-116"/>
      <use x="604.341797" xlink:href="#DejaVuSans-117"/>
      <use x="667.720703" xlink:href="#DejaVuSans-97"/>
      <use x="729" xlink:href="#DejaVuSans-116"/>
      <use x="768.208984" xlink:href="#DejaVuSans-105"/>
      <use x="795.992188" xlink:href="#DejaVuSans-111"/>
      <use x="857.173828" xlink:href="#DejaVuSans-110"/>
      <use x="920.552734" xlink:href="#DejaVuSans-115"/>
     </g>
    </g>
   </g>
   <g id="line2d_32">
    <path clip-path="url(#p4d23a7ce26)" d="M 57.6 292.100306 
L 59.145974 291.919684 
L 60.691948 293.431806 
L 62.237922 294.030196 
L 63.783896 293.628278 
L 65.32987 291.448301 
L 66.875844 290.804902 
L 68.421818 291.91606 
L 69.967792 289.186614 
L 71.513766 289.742425 
L 73.05974 294.691134 
L 74.605714 295.203669 
L 76.151688 295.14381 
L 77.697662 295.241568 
L 79.243636 295.473697 
L 80.78961 295.461193 
L 82.335584 295.293422 
L 83.881558 294.575883 
L 85.427532 294.022556 
L 86.973506 291.780439 
L 88.519481 288.113095 
L 90.065455 291.441267 
L 91.611429 293.743814 
L 93.157403 294.709315 
L 94.703377 295.04997 
L 96.249351 295.257256 
L 99.341299 295.243776 
L 102.433247 294.621893 
L 103.979221 292.385126 
L 105.525195 293.694359 
L 107.071169 293.469848 
L 108.617143 294.031703 
L 110.163117 294.925389 
L 111.709091 295.290445 
L 113.255065 295.371995 
L 114.801039 295.316562 
L 116.347013 294.953193 
L 117.892987 294.925985 
L 119.438961 295.023085 
L 120.984935 294.72115 
L 122.530909 294.078486 
L 124.076883 293.575948 
L 128.714805 293.784527 
L 130.260779 294.265362 
L 131.806753 295.064526 
L 134.898701 295.015725 
L 136.444675 295.266652 
L 137.990649 294.019942 
L 139.536623 290.277114 
L 141.082597 285.75693 
L 142.628571 279.010683 
L 144.174545 285.122818 
L 145.720519 289.122896 
L 148.812468 293.710757 
L 150.358442 294.404462 
L 151.904416 294.307282 
L 153.45039 292.818759 
L 154.996364 293.471394 
L 156.542338 293.269494 
L 158.088312 292.782467 
L 159.634286 292.871695 
L 161.18026 291.87447 
L 162.726234 292.184654 
L 165.818182 294.694665 
L 167.364156 295.246572 
L 168.91013 295.415277 
L 170.456104 294.788086 
L 172.002078 295.274507 
L 173.548052 295.263688 
L 175.094026 295.12615 
L 176.64 295.404551 
L 178.185974 295.186944 
L 179.731948 293.738772 
L 181.277922 293.265579 
L 182.823896 287.082317 
L 184.36987 293.623771 
L 185.915844 295.420429 
L 187.461818 295.215659 
L 189.007792 295.411876 
L 190.553766 295.126084 
L 192.09974 294.97414 
L 193.645714 294.468613 
L 195.191688 293.780884 
L 196.737662 293.490791 
L 198.283636 291.994007 
L 199.82961 291.439069 
L 201.375584 292.059127 
L 202.921558 294.331785 
L 204.467532 293.82555 
L 206.013506 290.579617 
L 207.559481 288.983903 
L 209.105455 284.274737 
L 210.651429 288.508493 
L 212.197403 293.323401 
L 213.743377 293.898866 
L 215.289351 293.736798 
L 216.835325 294.530803 
L 218.381299 295.058897 
L 219.927273 295.438162 
L 223.019221 295.44144 
L 224.565195 295.400405 
L 226.111169 293.896534 
L 227.657143 288.854944 
L 229.203117 287.936742 
L 230.749091 288.320539 
L 232.295065 295.392919 
L 233.841039 295.178501 
L 236.932987 295.12675 
L 238.478961 295.440966 
L 240.024935 295.456222 
L 241.570909 295.284438 
L 243.116883 294.383153 
L 244.662857 293.21764 
L 246.208831 293.266092 
L 247.754805 292.756885 
L 249.300779 293.11366 
L 250.846753 292.184048 
L 252.392727 290.717467 
L 253.938701 286.881448 
L 255.484675 286.986411 
L 257.030649 286.575374 
L 258.576623 290.458336 
L 260.122597 289.865528 
L 261.668571 291.462895 
L 263.214545 288.633465 
L 264.760519 292.556788 
L 266.306494 294.313715 
L 267.852468 293.882343 
L 269.398442 295.021233 
L 270.944416 295.291942 
L 272.49039 295.336948 
L 274.036364 295.125415 
L 277.128312 294.395485 
L 278.674286 292.986833 
L 280.22026 292.915045 
L 281.766234 293.736911 
L 283.312208 293.688298 
L 284.858182 294.678957 
L 286.404156 294.322115 
L 287.95013 293.696643 
L 289.496104 294.613839 
L 291.042078 293.463953 
L 292.588052 289.970883 
L 294.134026 286.105292 
L 295.68 278.885546 
L 297.225974 285.703334 
L 298.771948 290.067936 
L 300.317922 281.28035 
L 301.863896 293.746819 
L 303.40987 295.398989 
L 304.955844 295.281689 
L 306.501818 294.679824 
L 308.047792 294.887576 
L 309.593766 295.222471 
L 311.13974 289.401565 
L 312.685714 293.877157 
L 314.231688 251.12077 
L 315.777662 271.010462 
L 317.323636 274.708212 
L 318.86961 287.240484 
L 320.415584 288.562844 
L 321.961558 290.843546 
L 323.507532 290.990314 
L 325.053506 293.588864 
L 326.599481 293.324431 
L 328.145455 293.612996 
L 329.691429 294.413795 
L 332.783377 295.304489 
L 334.329351 294.425606 
L 337.421299 295.430531 
L 338.967273 295.20682 
L 340.513247 294.62732 
L 342.059221 293.502374 
L 343.605195 294.078902 
L 345.151169 293.497407 
L 348.243117 294.921661 
L 349.789091 295.212756 
L 354.427013 295.025142 
L 355.972987 293.324512 
L 357.518961 293.802001 
L 359.064935 293.33412 
L 360.610909 289.57222 
L 362.156883 289.383845 
L 363.702857 293.202627 
L 365.248831 286.144874 
L 366.794805 262.205439 
L 368.340779 235.239568 
L 369.886753 254.762253 
L 371.432727 284.410221 
L 372.978701 294.428827 
L 376.070649 292.987418 
L 377.616623 294.967116 
L 379.162597 295.227729 
L 382.254545 295.409294 
L 383.800519 295.312728 
L 386.892468 295.462236 
L 388.438442 295.455541 
L 389.984416 295.030459 
L 391.53039 295.243856 
L 393.076364 295.138104 
L 394.622338 294.733322 
L 396.168312 294.732293 
L 397.714286 294.927638 
L 399.26026 294.172106 
L 400.806234 293.705985 
L 402.352208 293.973953 
L 403.898182 294.017833 
L 405.444156 292.907435 
L 406.99013 288.801162 
L 408.536104 290.742756 
L 410.082078 293.521852 
L 411.628052 294.867787 
L 413.174026 294.920927 
L 414.72 295.359892 
L 414.72 295.359892 
" style="fill:none;stroke:#1f77b4;stroke-linecap:square;stroke-width:1.5;"/>
   </g>
   <g id="line2d_33">
    <path clip-path="url(#p4d23a7ce26)" d="M 57.6 295.035865 
L 59.145974 294.886773 
L 60.691948 294.53803 
L 62.237922 294.36607 
L 63.783896 292.582823 
L 65.32987 290.160473 
L 66.875844 293.588296 
L 68.421818 292.547129 
L 69.967792 292.555991 
L 73.05974 294.528432 
L 74.605714 295.150837 
L 76.151688 294.956885 
L 79.243636 295.398778 
L 82.335584 295.0252 
L 83.881558 294.499279 
L 85.427532 293.4816 
L 86.973506 289.606752 
L 88.519481 282.900589 
L 90.065455 293.621197 
L 91.611429 294.682206 
L 93.157403 294.428418 
L 94.703377 295.18111 
L 96.249351 295.379933 
L 97.795325 295.316917 
L 99.341299 295.395605 
L 100.887273 295.07722 
L 102.433247 295.194586 
L 103.979221 294.324324 
L 105.525195 292.765689 
L 107.071169 293.304446 
L 108.617143 294.767541 
L 110.163117 295.183908 
L 111.709091 295.457154 
L 114.801039 295.327837 
L 116.347013 294.843558 
L 117.892987 294.68394 
L 119.438961 294.649117 
L 120.984935 294.47654 
L 122.530909 293.057247 
L 124.076883 290.476979 
L 125.622857 290.369895 
L 127.168831 291.911898 
L 128.714805 292.091409 
L 130.260779 293.531795 
L 131.806753 293.720284 
L 136.444675 295.220786 
L 137.990649 295.281416 
L 139.536623 293.905123 
L 141.082597 290.575248 
L 142.628571 53.568 
L 144.174545 262.918959 
L 145.720519 295.151548 
L 147.266494 295.162073 
L 148.812468 292.321923 
L 150.358442 292.378935 
L 151.904416 292.849783 
L 153.45039 291.677808 
L 154.996364 291.686242 
L 156.542338 291.074764 
L 158.088312 291.065263 
L 159.634286 292.653387 
L 161.18026 292.27301 
L 162.726234 294.347791 
L 164.272208 294.755173 
L 165.818182 294.776973 
L 167.364156 293.690819 
L 168.91013 292.303016 
L 170.456104 287.171624 
L 172.002078 286.127609 
L 173.548052 289.572769 
L 175.094026 286.157869 
L 176.64 284.376007 
L 178.185974 277.731188 
L 179.731948 287.897707 
L 181.277922 291.58077 
L 182.823896 294.089918 
L 184.36987 293.825383 
L 187.461818 294.88984 
L 189.007792 295.120145 
L 190.553766 295.172333 
L 192.09974 295.418733 
L 193.645714 295.070257 
L 195.191688 294.524771 
L 196.737662 292.75229 
L 198.283636 289.961691 
L 199.82961 288.512541 
L 201.375584 289.990177 
L 202.921558 291.02918 
L 204.467532 289.352618 
L 206.013506 290.90655 
L 207.559481 291.228854 
L 210.651429 294.306834 
L 212.197403 293.706664 
L 213.743377 293.772169 
L 215.289351 294.804678 
L 216.835325 295.251478 
L 218.381299 295.245783 
L 219.927273 295.101763 
L 221.473247 295.174592 
L 223.019221 294.672682 
L 224.565195 295.088174 
L 226.111169 295.277072 
L 227.657143 295.072223 
L 229.203117 294.346413 
L 230.749091 293.450402 
L 232.295065 293.208875 
L 233.841039 294.290125 
L 235.387013 294.547694 
L 236.932987 295.06216 
L 240.024935 295.410634 
L 243.116883 295.29566 
L 244.662857 294.876293 
L 246.208831 294.672597 
L 247.754805 293.738252 
L 249.300779 293.482485 
L 250.846753 292.843249 
L 252.392727 293.33118 
L 253.938701 290.060195 
L 255.484675 285.32383 
L 257.030649 288.610684 
L 258.576623 289.596223 
L 260.122597 291.97407 
L 261.668571 291.977557 
L 263.214545 290.795601 
L 264.760519 293.178895 
L 266.306494 294.557338 
L 267.852468 294.094805 
L 269.398442 294.822545 
L 270.944416 295.08303 
L 274.036364 295.154151 
L 275.582338 294.713251 
L 277.128312 294.572089 
L 278.674286 293.728155 
L 280.22026 292.552179 
L 281.766234 292.901227 
L 283.312208 290.060449 
L 284.858182 291.091787 
L 286.404156 292.794451 
L 287.95013 290.306011 
L 289.496104 286.810635 
L 291.042078 290.266824 
L 292.588052 290.320379 
L 294.134026 284.800821 
L 295.68 290.327491 
L 297.225974 293.402138 
L 298.771948 294.952198 
L 300.317922 295.337269 
L 301.863896 295.416005 
L 303.40987 295.359164 
L 304.955844 295.439609 
L 306.501818 295.224139 
L 308.047792 294.786487 
L 311.13974 295.121244 
L 312.685714 294.94191 
L 314.231688 293.817265 
L 315.777662 294.262905 
L 317.323636 295.138216 
L 318.86961 295.475216 
L 321.961558 295.454799 
L 323.507532 295.354322 
L 325.053506 294.770553 
L 326.599481 294.411764 
L 328.145455 294.945268 
L 329.691429 295.359455 
L 331.237403 295.460846 
L 334.329351 295.483349 
L 338.967273 295.427931 
L 342.059221 295.27399 
L 345.151169 295.465851 
L 354.427013 295.44921 
L 355.972987 295.242369 
L 357.518961 294.718784 
L 359.064935 293.686882 
L 360.610909 292.504826 
L 362.156883 293.298034 
L 363.702857 294.680268 
L 365.248831 295.214606 
L 368.340779 293.847761 
L 369.886753 292.79043 
L 371.432727 293.544824 
L 372.978701 294.626628 
L 374.524675 295.066984 
L 376.070649 295.149454 
L 377.616623 295.432684 
L 380.708571 295.460133 
L 382.254545 295.396804 
L 383.800519 295.167605 
L 385.346494 294.711586 
L 386.892468 294.549399 
L 388.438442 294.603257 
L 389.984416 292.754951 
L 391.53039 293.105837 
L 393.076364 294.688268 
L 394.622338 293.682383 
L 396.168312 292.137549 
L 397.714286 294.134786 
L 399.26026 294.611084 
L 400.806234 292.454385 
L 402.352208 292.015946 
L 403.898182 289.635081 
L 405.444156 291.266971 
L 406.99013 286.546977 
L 408.536104 289.040298 
L 410.082078 288.920712 
L 411.628052 291.349191 
L 413.174026 290.681589 
L 414.72 290.453426 
L 414.72 290.453426 
" style="fill:none;stroke:#ff7f0e;stroke-linecap:square;stroke-width:1.5;"/>
   </g>
   <g id="patch_3">
    <path d="M 57.6 307.584 
L 57.6 41.472 
" style="fill:none;stroke:#000000;stroke-linecap:square;stroke-linejoin:miter;stroke-width:0.8;"/>
   </g>
   <g id="patch_4">
    <path d="M 414.72 307.584 
L 414.72 41.472 
" style="fill:none;stroke:#000000;stroke-linecap:square;stroke-linejoin:miter;stroke-width:0.8;"/>
   </g>
   <g id="patch_5">
    <path d="M 57.6 307.584 
L 414.72 307.584 
" style="fill:none;stroke:#000000;stroke-linecap:square;stroke-linejoin:miter;stroke-width:0.8;"/>
   </g>
   <g id="patch_6">
    <path d="M 57.6 41.472 
L 414.72 41.472 
" style="fill:none;stroke:#000000;stroke-linecap:square;stroke-linejoin:miter;stroke-width:0.8;"/>
   </g>
   <g id="legend_1">
    <g id="patch_7">
     <path d="M 174.515312 78.82825 
L 407.72 78.82825 
Q 409.72 78.82825 409.72 76.82825 
L 409.72 48.472 
Q 409.72 46.472 407.72 46.472 
L 174.515312 46.472 
Q 172.515312 46.472 172.515312 48.472 
L 172.515312 76.82825 
Q 172.515312 78.82825 174.515312 78.82825 
z
" style="fill:#ffffff;opacity:0.8;stroke:#cccccc;stroke-linejoin:miter;"/>
    </g>
    <g id="line2d_34">
     <path d="M 176.515312 54.570437 
L 196.515312 54.570437 
" style="fill:none;stroke:#1f77b4;stroke-linecap:square;stroke-width:1.5;"/>
    </g>
    <g id="line2d_35"/>
    <g id="text_15">
     <!-- Mode 2 from PCA 4gso+ligand -->
     <defs>
      <path d="M 9.8125 72.90625 
L 24.515625 72.90625 
L 43.109375 23.296875 
L 61.8125 72.90625 
L 76.515625 72.90625 
L 76.515625 0 
L 66.890625 0 
L 66.890625 64.015625 
L 48.09375 14.015625 
L 38.1875 14.015625 
L 19.390625 64.015625 
L 19.390625 0 
L 9.8125 0 
z
" id="DejaVuSans-77"/>
      <path d="M 52 44.1875 
Q 55.375 50.25 60.0625 53.125 
Q 64.75 56 71.09375 56 
Q 79.640625 56 84.28125 50.015625 
Q 88.921875 44.046875 88.921875 33.015625 
L 88.921875 0 
L 79.890625 0 
L 79.890625 32.71875 
Q 79.890625 40.578125 77.09375 44.375 
Q 74.3125 48.1875 68.609375 48.1875 
Q 61.625 48.1875 57.5625 43.546875 
Q 53.515625 38.921875 53.515625 30.90625 
L 53.515625 0 
L 44.484375 0 
L 44.484375 32.71875 
Q 44.484375 40.625 41.703125 44.40625 
Q 38.921875 48.1875 33.109375 48.1875 
Q 26.21875 48.1875 22.15625 43.53125 
Q 18.109375 38.875 18.109375 30.90625 
L 18.109375 0 
L 9.078125 0 
L 9.078125 54.6875 
L 18.109375 54.6875 
L 18.109375 46.1875 
Q 21.1875 51.21875 25.484375 53.609375 
Q 29.78125 56 35.6875 56 
Q 41.65625 56 45.828125 52.96875 
Q 50 49.953125 52 44.1875 
z
" id="DejaVuSans-109"/>
      <path d="M 19.671875 64.796875 
L 19.671875 37.40625 
L 32.078125 37.40625 
Q 38.96875 37.40625 42.71875 40.96875 
Q 46.484375 44.53125 46.484375 51.125 
Q 46.484375 57.671875 42.71875 61.234375 
Q 38.96875 64.796875 32.078125 64.796875 
z
M 9.8125 72.90625 
L 32.078125 72.90625 
Q 44.34375 72.90625 50.609375 67.359375 
Q 56.890625 61.8125 56.890625 51.125 
Q 56.890625 40.328125 50.609375 34.8125 
Q 44.34375 29.296875 32.078125 29.296875 
L 19.671875 29.296875 
L 19.671875 0 
L 9.8125 0 
z
" id="DejaVuSans-80"/>
      <path d="M 64.40625 67.28125 
L 64.40625 56.890625 
Q 59.421875 61.53125 53.78125 63.8125 
Q 48.140625 66.109375 41.796875 66.109375 
Q 29.296875 66.109375 22.65625 58.46875 
Q 16.015625 50.828125 16.015625 36.375 
Q 16.015625 21.96875 22.65625 14.328125 
Q 29.296875 6.6875 41.796875 6.6875 
Q 48.140625 6.6875 53.78125 8.984375 
Q 59.421875 11.28125 64.40625 15.921875 
L 64.40625 5.609375 
Q 59.234375 2.09375 53.4375 0.328125 
Q 47.65625 -1.421875 41.21875 -1.421875 
Q 24.65625 -1.421875 15.125 8.703125 
Q 5.609375 18.84375 5.609375 36.375 
Q 5.609375 53.953125 15.125 64.078125 
Q 24.65625 74.21875 41.21875 74.21875 
Q 47.75 74.21875 53.53125 72.484375 
Q 59.328125 70.75 64.40625 67.28125 
z
" id="DejaVuSans-67"/>
      <path d="M 34.1875 63.1875 
L 20.796875 26.90625 
L 47.609375 26.90625 
z
M 28.609375 72.90625 
L 39.796875 72.90625 
L 67.578125 0 
L 57.328125 0 
L 50.6875 18.703125 
L 17.828125 18.703125 
L 11.1875 0 
L 0.78125 0 
z
" id="DejaVuSans-65"/>
      <path d="M 45.40625 27.984375 
Q 45.40625 37.75 41.375 43.109375 
Q 37.359375 48.484375 30.078125 48.484375 
Q 22.859375 48.484375 18.828125 43.109375 
Q 14.796875 37.75 14.796875 27.984375 
Q 14.796875 18.265625 18.828125 12.890625 
Q 22.859375 7.515625 30.078125 7.515625 
Q 37.359375 7.515625 41.375 12.890625 
Q 45.40625 18.265625 45.40625 27.984375 
z
M 54.390625 6.78125 
Q 54.390625 -7.171875 48.1875 -13.984375 
Q 42 -20.796875 29.203125 -20.796875 
Q 24.46875 -20.796875 20.265625 -20.09375 
Q 16.0625 -19.390625 12.109375 -17.921875 
L 12.109375 -9.1875 
Q 16.0625 -11.328125 19.921875 -12.34375 
Q 23.78125 -13.375 27.78125 -13.375 
Q 36.625 -13.375 41.015625 -8.765625 
Q 45.40625 -4.15625 45.40625 5.171875 
L 45.40625 9.625 
Q 42.625 4.78125 38.28125 2.390625 
Q 33.9375 0 27.875 0 
Q 17.828125 0 11.671875 7.65625 
Q 5.515625 15.328125 5.515625 27.984375 
Q 5.515625 40.671875 11.671875 48.328125 
Q 17.828125 56 27.875 56 
Q 33.9375 56 38.28125 53.609375 
Q 42.625 51.21875 45.40625 46.390625 
L 45.40625 54.6875 
L 54.390625 54.6875 
z
" id="DejaVuSans-103"/>
      <path d="M 46 62.703125 
L 46 35.5 
L 73.1875 35.5 
L 73.1875 27.203125 
L 46 27.203125 
L 46 0 
L 37.796875 0 
L 37.796875 27.203125 
L 10.59375 27.203125 
L 10.59375 35.5 
L 37.796875 35.5 
L 37.796875 62.703125 
z
" id="DejaVuSans-43"/>
     </defs>
     <g transform="translate(204.515312 58.070437)scale(0.1 -0.1)">
      <use xlink:href="#DejaVuSans-77"/>
      <use x="86.279297" xlink:href="#DejaVuSans-111"/>
      <use x="147.460938" xlink:href="#DejaVuSans-100"/>
      <use x="210.9375" xlink:href="#DejaVuSans-101"/>
      <use x="272.460938" xlink:href="#DejaVuSans-32"/>
      <use x="304.248047" xlink:href="#DejaVuSans-50"/>
      <use x="367.871094" xlink:href="#DejaVuSans-32"/>
      <use x="399.658203" xlink:href="#DejaVuSans-102"/>
      <use x="434.863281" xlink:href="#DejaVuSans-114"/>
      <use x="473.726562" xlink:href="#DejaVuSans-111"/>
      <use x="534.908203" xlink:href="#DejaVuSans-109"/>
      <use x="632.320312" xlink:href="#DejaVuSans-32"/>
      <use x="664.107422" xlink:href="#DejaVuSans-80"/>
      <use x="724.410156" xlink:href="#DejaVuSans-67"/>
      <use x="794.234375" xlink:href="#DejaVuSans-65"/>
      <use x="862.642578" xlink:href="#DejaVuSans-32"/>
      <use x="894.429688" xlink:href="#DejaVuSans-52"/>
      <use x="958.052734" xlink:href="#DejaVuSans-103"/>
      <use x="1021.529297" xlink:href="#DejaVuSans-115"/>
      <use x="1073.628906" xlink:href="#DejaVuSans-111"/>
      <use x="1134.810547" xlink:href="#DejaVuSans-43"/>
      <use x="1218.599609" xlink:href="#DejaVuSans-108"/>
      <use x="1246.382812" xlink:href="#DejaVuSans-105"/>
      <use x="1274.166016" xlink:href="#DejaVuSans-103"/>
      <use x="1337.642578" xlink:href="#DejaVuSans-97"/>
      <use x="1398.921875" xlink:href="#DejaVuSans-110"/>
      <use x="1462.300781" xlink:href="#DejaVuSans-100"/>
     </g>
    </g>
    <g id="line2d_36">
     <path d="M 176.515312 69.248562 
L 196.515312 69.248562 
" style="fill:none;stroke:#ff7f0e;stroke-linecap:square;stroke-width:1.5;"/>
    </g>
    <g id="line2d_37"/>
    <g id="text_16">
     <!-- Mode 1 from ANM 4gso+ligand (x21.33) -->
     <defs>
      <path d="M 9.8125 72.90625 
L 23.09375 72.90625 
L 55.421875 11.921875 
L 55.421875 72.90625 
L 64.984375 72.90625 
L 64.984375 0 
L 51.703125 0 
L 19.390625 60.984375 
L 19.390625 0 
L 9.8125 0 
z
" id="DejaVuSans-78"/>
      <path d="M 31 75.875 
Q 24.46875 64.65625 21.28125 53.65625 
Q 18.109375 42.671875 18.109375 31.390625 
Q 18.109375 20.125 21.3125 9.0625 
Q 24.515625 -2 31 -13.1875 
L 23.1875 -13.1875 
Q 15.875 -1.703125 12.234375 9.375 
Q 8.59375 20.453125 8.59375 31.390625 
Q 8.59375 42.28125 12.203125 53.3125 
Q 15.828125 64.359375 23.1875 75.875 
z
" id="DejaVuSans-40"/>
      <path d="M 54.890625 54.6875 
L 35.109375 28.078125 
L 55.90625 0 
L 45.3125 0 
L 29.390625 21.484375 
L 13.484375 0 
L 2.875 0 
L 24.125 28.609375 
L 4.6875 54.6875 
L 15.28125 54.6875 
L 29.78125 35.203125 
L 44.28125 54.6875 
z
" id="DejaVuSans-120"/>
      <path d="M 10.6875 12.40625 
L 21 12.40625 
L 21 0 
L 10.6875 0 
z
" id="DejaVuSans-46"/>
      <path d="M 8.015625 75.875 
L 15.828125 75.875 
Q 23.140625 64.359375 26.78125 53.3125 
Q 30.421875 42.28125 30.421875 31.390625 
Q 30.421875 20.453125 26.78125 9.375 
Q 23.140625 -1.703125 15.828125 -13.1875 
L 8.015625 -13.1875 
Q 14.5 -2 17.703125 9.0625 
Q 20.90625 20.125 20.90625 31.390625 
Q 20.90625 42.671875 17.703125 53.65625 
Q 14.5 64.65625 8.015625 75.875 
z
" id="DejaVuSans-41"/>
     </defs>
     <g transform="translate(204.515312 72.748562)scale(0.1 -0.1)">
      <use xlink:href="#DejaVuSans-77"/>
      <use x="86.279297" xlink:href="#DejaVuSans-111"/>
      <use x="147.460938" xlink:href="#DejaVuSans-100"/>
      <use x="210.9375" xlink:href="#DejaVuSans-101"/>
      <use x="272.460938" xlink:href="#DejaVuSans-32"/>
      <use x="304.248047" xlink:href="#DejaVuSans-49"/>
      <use x="367.871094" xlink:href="#DejaVuSans-32"/>
      <use x="399.658203" xlink:href="#DejaVuSans-102"/>
      <use x="434.863281" xlink:href="#DejaVuSans-114"/>
      <use x="473.726562" xlink:href="#DejaVuSans-111"/>
      <use x="534.908203" xlink:href="#DejaVuSans-109"/>
      <use x="632.320312" xlink:href="#DejaVuSans-32"/>
      <use x="664.107422" xlink:href="#DejaVuSans-65"/>
      <use x="732.515625" xlink:href="#DejaVuSans-78"/>
      <use x="807.320312" xlink:href="#DejaVuSans-77"/>
      <use x="893.599609" xlink:href="#DejaVuSans-32"/>
      <use x="925.386719" xlink:href="#DejaVuSans-52"/>
      <use x="989.009766" xlink:href="#DejaVuSans-103"/>
      <use x="1052.486328" xlink:href="#DejaVuSans-115"/>
      <use x="1104.585938" xlink:href="#DejaVuSans-111"/>
      <use x="1165.767578" xlink:href="#DejaVuSans-43"/>
      <use x="1249.556641" xlink:href="#DejaVuSans-108"/>
      <use x="1277.339844" xlink:href="#DejaVuSans-105"/>
      <use x="1305.123047" xlink:href="#DejaVuSans-103"/>
      <use x="1368.599609" xlink:href="#DejaVuSans-97"/>
      <use x="1429.878906" xlink:href="#DejaVuSans-110"/>
      <use x="1493.257812" xlink:href="#DejaVuSans-100"/>
      <use x="1556.734375" xlink:href="#DejaVuSans-32"/>
      <use x="1588.521484" xlink:href="#DejaVuSans-40"/>
      <use x="1627.535156" xlink:href="#DejaVuSans-120"/>
      <use x="1686.714844" xlink:href="#DejaVuSans-50"/>
      <use x="1750.337891" xlink:href="#DejaVuSans-49"/>
      <use x="1813.960938" xlink:href="#DejaVuSans-46"/>
      <use x="1845.748047" xlink:href="#DejaVuSans-51"/>
      <use x="1909.371094" xlink:href="#DejaVuSans-51"/>
      <use x="1972.994141" xlink:href="#DejaVuSans-41"/>
     </g>
    </g>
   </g>
  </g>
 </g>
 <defs>
  <clipPath id="p4d23a7ce26">
   <rect height="266.112" width="357.12" x="57.6" y="41.472"/>
  </clipPath>
 </defs>
</svg>
